<?xml version="1.0" encoding="UTF-8"?>
<!--Generator: Apple Native CoreSVG 341-->
<!DOCTYPE svg
PUBLIC "-//W3C//DTD SVG 1.1//EN"
       "http://www.w3.org/Graphics/SVG/1.1/DTD/svg11.dtd">
<svg version="1.1" xmlns="http://www.w3.org/2000/svg" xmlns:xlink="http://www.w3.org/1999/xlink" viewBox="0 0 102.844 228.369">
 <g>
  <rect height="228.369" opacity="0" width="102.844" x="0" y="0"/>
  <path d="M50.9825 95.5078C77.3497 95.2148 92.8771 78.9551 99.1759 68.9941C101.666 65.1855 102.838 61.084 102.838 56.3965L102.838 39.1113C102.838 34.5703 101.813 30.3223 99.1759 26.5137C92.5841 16.6992 77.3497 0 50.9825 0C23.4435 0 0.445425 21.3867 0.00597177 47.6074C-0.433481 74.1211 23.4435 95.8008 50.9825 95.5078ZM81.0118 66.7969C77.6427 66.7969 75.1525 64.3066 75.1525 60.9375L75.1525 34.5703C75.1525 31.3477 77.6427 28.7109 81.0118 28.7109C84.381 28.7109 86.8712 31.3477 86.8712 34.5703L86.8712 60.9375C86.8712 64.3066 84.381 66.7969 81.0118 66.7969ZM45.7091 188.525L45.7091 106.934C32.965 106.055 21.2462 101.221 11.7247 93.8965L11.7247 188.525ZM33.6974 228.076C40.8751 228.076 45.7091 224.414 45.7091 217.236L45.7091 200.684L11.7247 200.684L11.7247 217.236C11.7247 224.414 16.4122 228.076 23.7364 228.076Z" fill="white" fill-opacity="0.85"/>
 </g>
</svg>
